<svg height="100%" stroke-miterlimit="10" style="fill-rule:nonzero;clip-rule:evenodd;stroke-linecap:round;stroke-linejoin:round;" version="1.1" viewBox="0 0 2880 1800" width="100%" xml:space="preserve" xmlns="http://www.w3.org/2000/svg" xmlns:vectornator="http://vectornator.io" xmlns:xlink="http://www.w3.org/1999/xlink">
    <defs/>
    <g id="Calque-1" vectornator:layerName="Calque 1">
    <g opacity="1" vectornator:layerName="Grouper 3">
    <path d="M1467.21 699.945C1467.21 699.945 1527.53 652.583 1488.13 571.617C1488.13 571.617 1449.43 500.809 1362.77 530.224L1184.93 635.013L1184.34 577.59C1184.34 577.59 1183.84 564.865 1200.49 562.789C1217.14 560.712 1298.99 560.738 1298.99 560.738C1298.99 560.738 1291.34 520.945 1267.59 502.789C1243.83 484.633 1209.63 471.983 1179.06 481.252C1148.49 490.522 1118.97 508.865 1106.86 541.883C1094.75 574.901 1100.74 672.995 1106.29 679.476C1111.84 685.956 1130.72 736.471 1193.92 725.662L1394.73 608.839C1394.73 608.839 1408.16 602.492 1414.63 612.569C1421.1 622.646 1467.21 699.945 1467.21 699.945Z" fill="#000000" fill-rule="nonzero" opacity="1" stroke="#000000" stroke-linecap="butt" stroke-linejoin="round" stroke-width="3" vectornator:layerName="Courbe 3"/>
    <path d="M1132.77 741.54C1132.77 741.54 1073.47 790.181 1114.6 870.286C1114.6 870.286 1154.8 940.251 1240.81 908.992L1416.37 800.427L1418.19 857.825C1418.19 857.825 1418.96 870.536 1402.36 872.968C1385.76 875.4 1303.92 877.122 1303.92 877.122C1303.92 877.122 1312.42 916.742 1336.56 934.387C1360.7 952.032 1395.16 963.948 1425.53 954.027C1455.89 944.107 1485.01 925.137 1496.41 891.868C1507.81 858.599 1499.73 760.656 1494.05 754.295C1488.36 747.934 1468.4 697.834 1405.45 709.991L1207.18 831.077C1207.18 831.077 1193.89 837.709 1187.21 827.773C1180.52 817.837 1132.77 741.54 1132.77 741.54Z" fill="#000000" fill-rule="nonzero" opacity="1" stroke="#000000" stroke-linecap="butt" stroke-linejoin="round" stroke-width="3" vectornator:layerName="Courbe 6"/>
    <path d="M1166.11 478.135" fill="none" opacity="1" stroke="#3897f1" stroke-linecap="butt" stroke-linejoin="round" stroke-width="3" vectornator:layerName="Courbe 4"/>
    <path d="M1209.22 294.084" fill="none" opacity="1" stroke="#3897f1" stroke-linecap="butt" stroke-linejoin="round" stroke-width="3" vectornator:layerName="Courbe 3"/>
    </g>
    <g opacity="1" vectornator:layerName="Grouper 4">
    <g fill="#000000" opacity="1" stroke="none" vectornator:layerName="Texte 4">
    <path d="M734.775 1215.93C783.54 1215.93 818.784 1192.12 818.784 1146.26C818.784 1098.3 778.368 1087.97 747.459 1080C727.686 1075.03 711.858 1071.08 711.858 1059.16C711.858 1049.36 721.758 1044.89 732.066 1044.89C744.057 1044.89 753.957 1051.12 753.957 1064.4L811.977 1064.4C811.977 1021.67 783.105 995.829 732.759 995.829C683.241 995.829 652.857 1019.52 652.857 1060.88C652.857 1108.68 691.605 1117.98 721.959 1125.53C741.948 1130.37 758.295 1134.19 758.295 1147.37C758.295 1158.84 746.721 1165.28 734.604 1165.28C721.413 1165.28 709.839 1157.98 709.839 1142.98L650.157 1142.98C650.157 1188.76 683.376 1215.93 734.775 1215.93Z"/>
    <path d="M940.977 1043.48C921.726 1043.48 904.581 1050.14 891.258 1061.66L884.268 1048.79L846.321 1048.79L846.321 1269.29L901.485 1269.29L901.485 1205.51C912.918 1212.42 926.328 1216.27 940.977 1216.27C990.513 1216.27 1025.92 1180.26 1025.92 1129.79C1025.92 1079.32 990.513 1043.48 940.977 1043.48ZM933.513 1166.86C912.612 1166.86 897.249 1151.07 897.249 1129.79C897.249 1108.51 912.612 1092.71 933.513 1092.71C954.414 1092.71 969.777 1108.51 969.777 1129.79C969.777 1151.07 954.285 1166.86 933.513 1166.86Z"/>
    <path d="M1182.37 1048.62L1176.66 1061.15C1163.28 1050.11 1146.24 1043.74 1127.16 1043.74C1077.62 1043.74 1042.22 1079.45 1042.22 1129.62C1042.22 1179.96 1077.62 1216.1 1127.16 1216.1C1145.98 1216.1 1162.78 1209.91 1176.04 1199.16L1180.82 1210.62L1223.96 1210.62L1223.96 1048.62L1182.37 1048.62ZM1134.62 1166.69C1113.72 1166.69 1098.36 1150.9 1098.36 1129.75C1098.36 1108.72 1113.59 1092.93 1134.62 1092.93C1155.52 1092.93 1170.89 1108.72 1170.89 1129.75C1170.89 1150.9 1155.52 1166.69 1134.62 1166.69Z"/>
    <path d="M1389.97 1048.62L1384.26 1061.15C1370.88 1050.11 1353.84 1043.74 1334.76 1043.74C1285.22 1043.74 1249.82 1079.45 1249.82 1129.62C1249.82 1179.96 1285.22 1216.1 1334.76 1216.1C1353.58 1216.1 1370.38 1209.91 1383.64 1199.16L1388.42 1210.62L1431.56 1210.62L1431.56 1048.62L1389.97 1048.62ZM1342.22 1166.69C1321.32 1166.69 1305.96 1150.9 1305.96 1129.75C1305.96 1108.72 1321.19 1092.93 1342.22 1092.93C1363.12 1092.93 1378.49 1108.72 1378.49 1129.75C1378.49 1150.9 1363.12 1166.69 1342.22 1166.69Z"/>
    <path d="M1557.43 1048.02C1538.15 1048.02 1524.23 1053.56 1512.81 1066.77L1504.1 1048.79L1466.72 1048.79L1466.72 1210.79L1522.52 1210.79L1522.52 1128.41C1522.52 1107.75 1530.8 1099.08 1550.55 1099.08L1572.21 1099.08L1572.21 1048.02L1557.43 1048.02Z"/>
    <path d="M1687.98 1043.48C1668.73 1043.48 1651.58 1050.14 1638.26 1061.66L1631.27 1048.79L1593.32 1048.79L1593.32 1269.29L1648.49 1269.29L1648.49 1205.51C1659.92 1212.42 1673.33 1216.27 1687.98 1216.27C1737.51 1216.27 1772.92 1180.26 1772.92 1129.79C1772.92 1079.32 1737.51 1043.48 1687.98 1043.48ZM1680.51 1166.86C1659.61 1166.86 1644.25 1151.07 1644.25 1129.79C1644.25 1108.51 1659.61 1092.71 1680.51 1092.71C1701.41 1092.71 1716.78 1108.51 1716.78 1129.79C1716.78 1151.07 1701.29 1166.86 1680.51 1166.86Z"/>
    <path d="M1798.52 1210.79L1854.32 1210.79L1854.32 990.291L1798.52 990.291L1798.52 1210.79Z"/>
    <path d="M2056.35 1128.26C2056.35 1080.74 2020.19 1043.48 1967.98 1043.48C1917.13 1043.48 1879.98 1080 1879.98 1129.67C1879.98 1179.16 1917.43 1216.1 1967.98 1216.1C2008.62 1216.1 2041.39 1193 2052.79 1156.03L1997.27 1156.03C1991.9 1165.52 1981.01 1171.22 1967.98 1171.22C1950.36 1171.22 1938.56 1161.62 1934.9 1143.03L2055.2 1143.03C2055.92 1138.02 2056.35 1133.14 2056.35 1128.26L2056.35 1128.26ZM1967.97 1087.21C1984.81 1087.21 1996.48 1095.94 2001.38 1112.13L1935.89 1112.13C1940.4 1096.04 1951.71 1087.21 1967.97 1087.21Z"/>
    </g>
    <path d="M2084.72 1186.79C2084.72 1199.99 2095.52 1210.79 2108.72 1210.79C2121.92 1210.79 2132.72 1199.99 2132.72 1186.79C2132.72 1173.59 2121.92 1162.79 2108.72 1162.79C2095.52 1162.79 2084.72 1173.59 2084.72 1186.79Z" fill="#000000" opacity="1" stroke="none" vectornator:layerName="Texte 5"/>
    </g>
    </g>
    </svg>