<svg height="100%" stroke-miterlimit="10" style="fill-rule:nonzero;clip-rule:evenodd;stroke-linecap:round;stroke-linejoin:round;" version="1.1" viewBox="0 0 2880 1800" width="100%" xml:space="preserve" xmlns="http://www.w3.org/2000/svg" xmlns:vectornator="http://vectornator.io" xmlns:xlink="http://www.w3.org/1999/xlink">
    <defs/>
    <g id="Calque-1" vectornator:layerName="Calque 1">
    <g opacity="1" vectornator:layerName="Grouper 6">
    <g opacity="1" vectornator:layerName="Grouper 2">
    <path d="M758.594 883.414C758.594 883.414 818.916 836.051 779.507 755.086C779.507 755.086 740.809 684.278 654.152 713.692L476.312 818.481L475.724 761.058C475.724 761.058 475.223 748.334 491.874 746.257C508.524 744.18 590.373 744.206 590.373 744.206C590.373 744.206 582.724 704.414 558.97 686.257C535.215 668.101 501.015 655.452 470.443 664.721C439.872 673.99 410.352 692.334 398.243 725.352C386.135 758.37 392.12 856.463 397.67 862.944C403.219 869.425 422.101 919.94 485.298 909.131L686.109 792.308C686.109 792.308 699.539 785.961 706.009 796.038C712.48 806.115 758.594 883.414 758.594 883.414Z" fill="#000000" fill-rule="nonzero" opacity="1" stroke="#000000" stroke-linecap="butt" stroke-linejoin="round" stroke-width="3" vectornator:layerName="Courbe 3"/>
    <path d="M424.15 925.009C424.15 925.009 364.853 973.649 405.983 1053.75C405.983 1053.75 446.185 1123.72 532.193 1092.46L707.754 983.896L709.569 1041.29C709.569 1041.29 710.342 1054 693.739 1056.44C677.137 1058.87 595.306 1060.59 595.306 1060.59C595.306 1060.59 603.804 1100.21 627.941 1117.86C652.078 1135.5 686.54 1147.42 716.907 1137.5C747.273 1127.58 776.395 1108.61 787.795 1075.34C799.195 1042.07 791.116 944.124 785.429 937.763C779.742 931.403 759.786 881.303 696.834 893.459L498.565 1014.55C498.565 1014.55 485.273 1021.18 478.589 1011.24C471.905 1001.31 424.15 925.009 424.15 925.009Z" fill="#000000" fill-rule="nonzero" opacity="1" stroke="#000000" stroke-linecap="butt" stroke-linejoin="round" stroke-width="3" vectornator:layerName="Courbe 6"/>
    <path d="M457.493 661.604" fill="none" opacity="1" stroke="#3897f1" stroke-linecap="butt" stroke-linejoin="round" stroke-width="3" vectornator:layerName="Courbe 4"/>
    <path d="M500.606 477.553" fill="none" opacity="1" stroke="#3897f1" stroke-linecap="butt" stroke-linejoin="round" stroke-width="3" vectornator:layerName="Courbe 3"/>
    </g>
    <g opacity="1" vectornator:layerName="Grouper 5">
    <g fill="#000000" opacity="1" stroke="none" vectornator:layerName="Texte 2">
    <path d="M982.157 1032.46C1030.92 1032.46 1066.17 1008.65 1066.17 962.787C1066.17 914.832 1025.75 904.506 994.841 896.532C975.068 891.561 959.24 887.616 959.24 875.688C959.24 865.887 969.14 861.423 979.448 861.423C991.439 861.423 1001.34 867.651 1001.34 880.932L1059.36 880.932C1059.36 838.206 1030.49 812.361 980.141 812.361C930.623 812.361 900.239 836.052 900.239 877.407C900.239 925.215 938.987 934.515 969.341 942.06C989.33 946.905 1005.68 950.724 1005.68 963.897C1005.68 975.369 994.103 981.816 981.986 981.816C968.795 981.816 957.221 974.514 957.221 959.514L897.539 959.514C897.539 1005.29 930.758 1032.46 982.157 1032.46Z"/>
    <path d="M1188.36 860.013C1169.11 860.013 1151.96 866.673 1138.64 878.193L1131.65 865.323L1093.7 865.323L1093.7 1085.82L1148.87 1085.82L1148.87 1022.05C1160.3 1028.95 1173.71 1032.8 1188.36 1032.8C1237.89 1032.8 1273.3 996.795 1273.3 946.323C1273.3 895.851 1237.89 860.013 1188.36 860.013ZM1180.89 983.394C1159.99 983.394 1144.63 967.602 1144.63 946.32C1144.63 925.038 1159.99 909.246 1180.89 909.246C1201.8 909.246 1217.16 925.038 1217.16 946.32C1217.16 967.602 1201.67 983.394 1180.89 983.394Z"/>
    <path d="M1429.75 865.149L1424.04 877.677C1410.66 866.64 1393.62 860.268 1374.54 860.268C1325.01 860.268 1289.6 895.977 1289.6 946.149C1289.6 996.495 1325.01 1032.63 1374.54 1032.63C1393.36 1032.63 1410.16 1026.44 1423.42 1015.69L1428.2 1027.15L1471.34 1027.15L1471.34 865.152L1429.75 865.149ZM1382 983.226C1361.1 983.226 1345.74 967.434 1345.74 946.278C1345.74 925.251 1360.98 909.459 1382 909.459C1402.9 909.459 1418.27 925.251 1418.27 946.278C1418.27 967.434 1402.9 983.226 1382 983.226Z"/>
    <path d="M1637.35 865.149L1631.64 877.677C1618.26 866.64 1601.22 860.268 1582.14 860.268C1532.61 860.268 1497.2 895.977 1497.2 946.149C1497.2 996.495 1532.61 1032.63 1582.14 1032.63C1600.96 1032.63 1617.76 1026.44 1631.02 1015.69L1635.8 1027.15L1678.94 1027.15L1678.94 865.152L1637.35 865.149ZM1589.6 983.226C1568.7 983.226 1553.34 967.434 1553.34 946.278C1553.34 925.251 1568.58 909.459 1589.6 909.459C1610.5 909.459 1625.87 925.251 1625.87 946.278C1625.87 967.434 1610.5 983.226 1589.6 983.226Z"/>
    <path d="M1804.81 864.552C1785.53 864.552 1771.62 870.087 1760.19 883.302L1751.49 865.323L1714.1 865.323L1714.1 1027.32L1769.9 1027.32L1769.9 944.943C1769.9 924.279 1778.18 915.615 1797.93 915.615L1819.59 915.615L1819.59 864.552L1804.81 864.552Z"/>
    <path d="M1935.36 860.013C1916.11 860.013 1898.96 866.673 1885.64 878.193L1878.65 865.323L1840.7 865.323L1840.7 1085.82L1895.87 1085.82L1895.87 1022.05C1907.3 1028.95 1920.71 1032.8 1935.36 1032.8C1984.89 1032.8 2020.3 996.795 2020.3 946.323C2020.3 895.851 1984.89 860.013 1935.36 860.013ZM1927.89 983.394C1906.99 983.394 1891.63 967.602 1891.63 946.32C1891.63 925.038 1906.99 909.246 1927.89 909.246C1948.8 909.246 1964.16 925.038 1964.16 946.32C1964.16 967.602 1948.67 983.394 1927.89 983.394Z"/>
    <path d="M2045.9 1027.32L2101.7 1027.32L2101.7 806.823L2045.9 806.823L2045.9 1027.32Z"/>
    <path d="M2303.73 944.787C2303.73 897.27 2267.58 860.016 2215.36 860.016C2164.51 860.016 2127.36 896.535 2127.36 946.2C2127.36 995.691 2164.81 1032.64 2215.36 1032.64C2256 1032.64 2288.77 1009.54 2300.17 972.564L2244.65 972.564C2239.28 982.047 2228.39 987.756 2215.36 987.756C2197.74 987.756 2185.94 978.147 2182.29 959.565L2302.58 959.565C2303.3 954.555 2303.73 949.674 2303.73 944.793L2303.73 944.787ZM2215.35 903.738C2232.19 903.738 2243.86 912.474 2248.76 928.665L2183.27 928.665C2187.78 912.573 2199.09 903.738 2215.35 903.738Z"/>
    </g>
    <path d="M2332.11 1003.32C2332.11 1016.52 2342.91 1027.32 2356.11 1027.32C2369.31 1027.32 2380.11 1016.52 2380.11 1003.32C2380.11 990.123 2369.31 979.323 2356.11 979.323C2342.91 979.323 2332.11 990.123 2332.11 1003.32Z" fill="#000000" opacity="1" stroke="none" vectornator:layerName="Texte 3"/>
    </g>
    </g>
    </g>
    </svg>