<svg xmlns="http://www.w3.org/2000/svg" xmlns:xlink="http://www.w3.org/1999/xlink" width="100" zoomAndPan="magnify" viewBox="0 0 375 79.499998" height="50" preserveAspectRatio="xMidYMid meet" version="1.0"><defs><g/><clipPath id="075033feb4"><path d="M 79.503906 67.148438 L 186.105469 67.148438 L 186.105469 79.003906 L 79.503906 79.003906 Z M 79.503906 67.148438 " clip-rule="nonzero"/></clipPath><clipPath id="166da5f752"><path d="M 199.980469 0 L 306.585938 0 L 306.585938 11.628906 L 199.980469 11.628906 Z M 199.980469 0 " clip-rule="nonzero"/></clipPath></defs><g clip-path="url(#075033feb4)"><path fill="#000000" d="M 79.503906 67.148438 L 186.101562 67.148438 L 186.101562 79.003906 L 79.503906 79.003906 Z M 79.503906 67.148438 " fill-opacity="1" fill-rule="nonzero"/></g><g clip-path="url(#166da5f752)"><path fill="#000000" d="M 199.980469 -0.226562 L 306.582031 -0.226562 L 306.582031 11.628906 L 199.980469 11.628906 Z M 199.980469 -0.226562 " fill-opacity="1" fill-rule="nonzero"/></g><g fill="#000000" fill-opacity="1"><g transform="translate(6.516863, 47.972541)"><g><path d="M 16.9375 0.722656 C 25.511719 0.722656 30.777344 -3.355469 30.777344 -10.171875 C 30.777344 -15.90625 27.007812 -19.3125 18.023438 -21.429688 C 12.496094 -22.722656 10.585938 -24.117188 10.585938 -26.335938 C 10.585938 -28.714844 12.703125 -30.160156 16.164062 -30.160156 C 19.933594 -30.160156 22.207031 -28.195312 22.207031 -24.941406 L 30.109375 -24.941406 C 30.109375 -32.226562 24.632812 -36.871094 16.0625 -36.871094 C 7.746094 -36.871094 2.582031 -32.792969 2.582031 -26.183594 C 2.582031 -20.296875 6.558594 -16.785156 15.027344 -14.976562 C 20.140625 -13.890625 22.464844 -12.394531 22.464844 -9.863281 C 22.464844 -7.4375 20.296875 -6.042969 16.886719 -6.042969 C 12.910156 -6.042969 10.328125 -8.054688 10.328125 -11.515625 L 2.273438 -11.515625 C 2.273438 -4.027344 7.851562 0.722656 16.9375 0.722656 Z M 16.9375 0.722656 "/></g></g></g><g fill="#000000" fill-opacity="1"><g transform="translate(50.309535, 47.972541)"><g><path d="M 4.339844 0 L 12.550781 0 L 12.550781 -10.070312 L 18.488281 -10.070312 C 27.214844 -10.070312 32.84375 -15.183594 32.84375 -23.085938 C 32.84375 -31.035156 27.214844 -36.148438 18.488281 -36.148438 L 4.339844 -36.148438 Z M 12.496094 -17.144531 L 12.496094 -28.972656 L 17.816406 -28.972656 C 22.101562 -28.972656 24.476562 -26.800781 24.476562 -23.03125 C 24.476562 -19.261719 22.101562 -17.144531 17.816406 -17.144531 Z M 12.496094 -17.144531 "/></g></g></g><g fill="#000000" fill-opacity="1"><g transform="translate(95.341626, 47.972541)"><g><path d="M 0.464844 0 L 9.242188 0 L 11.671875 -6.25 L 26.027344 -6.25 L 28.453125 0 L 37.234375 0 L 22.878906 -36.148438 L 14.820312 -36.148438 Z M 13.789062 -12.703125 L 18.847656 -25.925781 L 23.960938 -12.703125 Z M 13.789062 -12.703125 "/></g></g></g><g fill="#000000" fill-opacity="1"><g transform="translate(143.730463, 47.972541)"><g><path d="M 0.464844 0 L 9.242188 0 L 11.671875 -6.25 L 26.027344 -6.25 L 28.453125 0 L 37.234375 0 L 22.878906 -36.148438 L 14.820312 -36.148438 Z M 13.789062 -12.703125 L 18.847656 -25.925781 L 23.960938 -12.703125 Z M 13.789062 -12.703125 "/></g></g></g><g fill="#000000" fill-opacity="1"><g transform="translate(204.321403, 65.231827)"><g><path d="M 4.339844 0 L 12.550781 0 L 12.550781 -11.257812 L 17.972656 -11.257812 L 24.425781 0 L 33.929688 0 L 26.441406 -12.550781 C 30.777344 -14.460938 33.308594 -18.382812 33.308594 -23.703125 C 33.308594 -31.398438 28.042969 -36.148438 19.777344 -36.148438 L 4.339844 -36.148438 Z M 12.445312 -18.179688 L 12.445312 -29.125 L 18.695312 -29.125 C 22.722656 -29.125 24.996094 -27.164062 24.996094 -23.652344 C 24.996094 -20.140625 22.722656 -18.179688 18.695312 -18.179688 Z M 12.445312 -18.179688 "/></g></g></g><g fill="#000000" fill-opacity="1"><g transform="translate(251.367542, 65.231827)"><g><path d="M 4.339844 0 L 12.550781 0 L 12.550781 -10.070312 L 18.488281 -10.070312 C 27.214844 -10.070312 32.84375 -15.183594 32.84375 -23.085938 C 32.84375 -31.035156 27.214844 -36.148438 18.488281 -36.148438 L 4.339844 -36.148438 Z M 12.496094 -17.144531 L 12.496094 -28.972656 L 17.816406 -28.972656 C 22.101562 -28.972656 24.476562 -26.800781 24.476562 -23.03125 C 24.476562 -19.261719 22.101562 -17.144531 17.816406 -17.144531 Z M 12.496094 -17.144531 "/></g></g></g><g fill="#000000" fill-opacity="1"><g transform="translate(296.399633, 65.231827)"><g><path d="M 4.339844 0 L 28.351562 0 L 28.351562 -7.695312 L 12.550781 -7.695312 L 12.550781 -36.148438 L 4.339844 -36.148438 Z M 4.339844 0 "/></g></g></g><g fill="#000000" fill-opacity="1"><g transform="translate(336.835558, 65.231827)"><g><path d="M 4.339844 0 L 28.660156 0 L 28.660156 -6.972656 L 12.496094 -6.972656 L 12.496094 -14.871094 L 26.699219 -14.871094 L 26.699219 -21.742188 L 12.496094 -21.742188 L 12.496094 -29.230469 L 28.09375 -29.230469 L 28.09375 -36.148438 L 4.339844 -36.148438 Z M 4.339844 0 "/></g></g></g></svg>